<?xml version="1.0" encoding="UTF-8"?>
<svg xmlns="http://www.w3.org/2000/svg" xmlns:xlink="http://www.w3.org/1999/xlink" width="500px" height="500px" viewBox="0 0 500 500" version="1.1">
<g id="surface1">
<rect x="0" y="0" width="500" height="500" style="fill:rgb(100%,100%,100%);fill-opacity:1;stroke:none;"/>
<path style=" stroke:none;fill-rule:evenodd;fill:rgb(100%,100%,100%);fill-opacity:1;" d="M 418.535156 60.667969 L 418.535156 69.355469 L 249.996094 39.816406 L 81.46875 69.355469 L 81.46875 60.667969 L 249.996094 30.933594 Z M 418.535156 60.667969 "/>
<path style=" stroke:none;fill-rule:evenodd;fill:rgb(20%,64.313728%,34.117648%);fill-opacity:1;" d="M 418.535156 51.78125 L 418.535156 60.667969 L 249.996094 30.933594 L 81.46875 60.667969 L 81.46875 51.78125 L 249.996094 22.058594 Z M 418.535156 51.78125 "/>
<path style=" stroke:none;fill-rule:evenodd;fill:rgb(80.000001%,12.941177%,19.215687%);fill-opacity:1;" d="M 418.535156 69.355469 L 249.996094 39.816406 L 81.46875 69.355469 L 81.472656 99.324219 L 82.929688 98.496094 C 83.523438 98.164062 143.328125 65.007812 250.320312 65.007812 C 357.320312 65.007812 416.421875 98.171875 417.023438 98.503906 L 418.46875 99.332031 Z M 418.535156 69.355469 "/>
<path style=" stroke:none;fill-rule:evenodd;fill:rgb(100%,94.901961%,17.647059%);fill-opacity:1;" d="M 250.320312 70.800781 C 346.941406 70.800781 403.519531 97.992188 412.6875 102.757812 L 412.6875 189.039062 C 412.6875 236.078125 401.609375 282.9375 379.773438 328.34375 C 331.976562 427.515625 260.058594 466.453125 249.996094 471.535156 C 239.929688 466.453125 167.957031 427.515625 120.171875 328.34375 C 98.335938 282.9375 87.261719 236.078125 87.261719 189.039062 L 87.261719 102.769531 C 96.511719 98.007812 153.683594 70.800781 250.320312 70.800781 Z M 250.320312 70.800781 "/>
<path style=" stroke:none;fill-rule:evenodd;fill:rgb(0%,0%,0%);fill-opacity:1;" d="M 82.933594 98.496094 L 81.472656 99.324219 L 81.472656 189.039062 C 81.472656 236.960938 92.738281 284.671875 114.957031 330.839844 C 167.121094 439.136719 247.988281 477.023438 248.800781 477.394531 L 249.996094 477.941406 L 251.191406 477.394531 C 252.011719 477.023438 332.8125 439.128906 384.972656 330.839844 C 407.203125 284.671875 418.46875 236.960938 418.46875 189.039062 L 418.46875 99.332031 L 417.023438 98.5 C 416.429688 98.171875 357.320312 65.007812 250.320312 65.007812 C 143.328125 65.007812 83.527344 98.164062 82.933594 98.496094 Z M 250.320312 70.800781 C 346.941406 70.800781 403.519531 97.992188 412.6875 102.757812 L 412.6875 189.039062 C 412.6875 236.078125 401.609375 282.9375 379.773438 328.34375 C 331.976562 427.515625 260.058594 466.453125 249.996094 471.535156 C 239.929688 466.453125 167.957031 427.515625 120.171875 328.34375 C 98.335938 282.9375 87.261719 236.078125 87.261719 189.039062 L 87.261719 102.769531 C 96.511719 98.007812 153.683594 70.800781 250.320312 70.800781 Z M 250.320312 70.800781 "/>
<path style=" stroke:none;fill-rule:evenodd;fill:rgb(0%,0%,0%);fill-opacity:1;" d="M 275.628906 387.929688 C 278.433594 389.867188 276.398438 393.238281 274.320312 393.765625 C 272.15625 394.351562 270.308594 391.953125 269.261719 394.585938 C 268.671875 396 270.269531 406.707031 281.226562 406.707031 C 291.453125 406.707031 296.332031 393.578125 297.296875 391.601562 C 298.261719 389.628906 298.886719 387.113281 297.917969 387.113281 C 293.429688 387.113281 292.125 389.777344 292.125 389.777344 C 292.125 389.777344 291.785156 387.214844 294.015625 385.28125 C 295.851562 383.699219 298.265625 384.085938 299.136719 384.085938 C 300.964844 384.085938 300.679688 382.722656 301.78125 380.027344 C 304.300781 373.683594 306.035156 373.398438 307.671875 370.507812 C 309.027344 368.152344 306.464844 367.230469 301.410156 366.753906 C 296.339844 366.269531 293.621094 366.476562 291.359375 366.804688 C 289.089844 367.128906 286.828125 368.050781 285.421875 371.523438 C 284.664062 373.402344 286.046875 375.253906 288.703125 374.773438 C 291.359375 374.277344 293.914062 372.269531 293.914062 372.269531 C 293.914062 372.269531 292.71875 377.023438 288.757812 378.007812 C 285.082031 378.910156 280.746094 376.695312 281.328125 372.976562 C 282.089844 368.15625 285.421875 364.621094 291.503906 363.429688 C 297.59375 362.203125 303.664062 363.144531 309.078125 364.472656 C 314.472656 365.835938 318.445312 365.011719 323.460938 364.71875 C 334.277344 364.140625 340.980469 361.585938 340.980469 361.585938 C 340.980469 361.585938 336.105469 365.542969 329.347656 367.371094 C 322.589844 369.214844 316.566406 368.449219 314.617188 369.214844 C 313.039062 369.890625 310.816406 373.015625 308.980469 376.585938 C 307.296875 379.871094 305.5 383.65625 306.277344 383.65625 C 312.558594 383.894531 314.859375 382.519531 314.859375 382.519531 C 314.859375 382.519531 313.617188 385.230469 310.625 386.511719 C 308.546875 387.351562 305.019531 387.351562 305.019531 387.351562 C 305.019531 387.351562 303.433594 391.367188 301.652344 394.988281 C 299.851562 398.605469 296.910156 404.257812 291.609375 407.054688 C 286.289062 409.84375 276.117188 413.324219 269.707031 404.109375 C 262.929688 394.441406 269.117188 383.441406 275.628906 387.929688 Z M 196.964844 389.1875 C 198.21875 392.390625 195.5625 394.058594 194.015625 394.058594 C 192.46875 394.058594 190.542969 392.910156 190.140625 394.84375 C 189.769531 396.761719 194.25 406.664062 204.671875 406.664062 C 215.101562 406.664062 219.933594 400.628906 219.199219 395.226562 C 218.382812 389.191406 208.796875 386.792969 201.160156 382.777344 C 197.421875 380.816406 188.972656 379.503906 188.972656 371.59375 C 188.972656 354.707031 214.671875 365.492188 214.671875 365.492188 C 214.671875 365.492188 214.726562 363.382812 215.921875 363.28125 C 216.5 363.230469 217.660156 363 218.046875 364.910156 C 218.429688 366.835938 220.128906 376.976562 220.128906 376.976562 C 220.128906 376.976562 216.351562 369.253906 205.984375 365.882812 C 204.152344 365.238281 196.132812 363.714844 196.179688 370.0625 C 196.277344 373.832031 200.871094 375.519531 208.832031 378.613281 C 219.300781 382.71875 224.664062 386.539062 222.191406 397.542969 C 219.835938 408.105469 209.507812 409.84375 204.488281 409.84375 C 199.476562 409.84375 187.941406 406.328125 187.941406 394.738281 C 187.941406 386.539062 195.984375 386.734375 196.964844 389.1875 Z M 251.878906 325.695312 L 256.097656 327.695312 C 258.53125 328.636719 260.085938 328.21875 260.644531 327.988281 C 261.230469 327.734375 263.460938 325.339844 263.945312 323.304688 C 264.171875 322.476562 264.050781 321.753906 263.609375 321.222656 C 261.96875 319.277344 259.0625 310.339844 257.980469 305.511719 C 257.582031 303.71875 258.066406 298.773438 258.441406 294.789062 C 258.773438 291.371094 258.976562 289.246094 258.804688 288.699219 C 258.515625 287.855469 257.253906 287.035156 255.800781 286.117188 L 253.5 284.550781 C 252.273438 283.546875 252.21875 282.179688 252.152344 280.710938 L 251.90625 278.429688 C 251.371094 276.308594 240.574219 265.277344 238.902344 265.175781 C 236.476562 265.019531 235.84375 267.679688 235.6875 269.28125 C 235.59375 270.21875 236.675781 274.398438 237.648438 278.105469 L 238.726562 282.574219 C 239.832031 289.601562 247.300781 301.976562 250.488281 307.257812 L 252 309.828125 C 252.652344 311.316406 252.398438 312.492188 251.238281 313.148438 C 250.109375 313.796875 240.398438 312.785156 235.761719 311.714844 C 233.769531 311.257812 231.3125 310.265625 228.910156 309.292969 C 226.164062 308.199219 223.558594 307.132812 222.054688 307.058594 C 220.300781 306.96875 219.464844 307.324219 218.820312 307.621094 L 217.765625 307.914062 L 216.71875 307.582031 C 215.433594 307.011719 213.027344 305.976562 206.464844 305.382812 C 196.894531 304.484375 196.175781 306.40625 195.785156 307.449219 C 195.3125 308.769531 201.160156 314.992188 202.207031 315.824219 C 203.539062 316.898438 207.839844 318.535156 210.46875 318.097656 C 213.472656 317.617188 218.371094 317.007812 218.976562 317.132812 L 219.960938 317.734375 L 220.878906 318.382812 C 221.707031 318.722656 227.054688 319.015625 228.671875 319.101562 C 230.539062 319.203125 235.433594 320.214844 239.015625 320.964844 L 243.015625 321.773438 C 244.582031 322.058594 248.617188 324.050781 251.878906 325.695312 Z M 251.878906 325.695312 "/>
<path style=" stroke:none;fill-rule:evenodd;fill:rgb(0%,0%,0%);fill-opacity:1;" d="M 350.867188 201.589844 C 350.65625 201.328125 350.480469 201.3125 350.367188 201.34375 C 350.265625 201.375 350.128906 201.472656 350.089844 201.785156 C 349.914062 203.117188 348.242188 206.542969 346.914062 207.050781 C 344.222656 208.089844 342.828125 211.242188 341.820312 213.542969 C 341.304688 214.726562 340.800781 215.859375 340.402344 215.875 C 340.230469 215.886719 340.042969 215.703125 339.832031 215.320312 C 338.175781 212.460938 339.105469 208.089844 339.847656 204.566406 L 340.019531 203.703125 C 340.628906 200.734375 344.101562 196.574219 346.179688 194.078125 L 347.097656 192.972656 C 348.511719 191.207031 348.867188 185.230469 348.605469 184.78125 C 348.519531 184.757812 348.460938 184.804688 348.425781 184.859375 L 348.316406 184.945312 L 348.316406 184.976562 C 348.230469 185.070312 348.15625 185.082031 348.085938 185.382812 C 347.71875 187.25 344.304688 191.042969 338.472656 196.085938 C 337.277344 197.121094 335.914062 198.992188 334.800781 200.496094 C 334.082031 201.480469 333.238281 202.617188 333.015625 202.671875 C 331.570312 194.960938 334.183594 190.554688 335.425781 188.425781 L 336.003906 187.34375 C 338.472656 180.628906 344.824219 175.546875 344.890625 175.5 C 344.976562 175.304688 344.976562 175.097656 344.820312 174.964844 C 344.578125 174.777344 344.132812 174.859375 343.429688 175.210938 L 343.046875 175.402344 C 340.828125 176.480469 334.148438 179.734375 330.050781 187.574219 C 327.105469 193.21875 325.964844 199.527344 325.964844 204.285156 C 325.964844 206.710938 326.257812 208.726562 326.757812 210.058594 C 328.199219 213.898438 330.71875 223.4375 331.496094 227.183594 C 331.976562 229.503906 332.050781 237.476562 332.050781 242.472656 C 332.050781 244.914062 332.042969 246.621094 332.042969 246.6875 C 332.027344 246.6875 330.769531 250.738281 330.769531 250.738281 C 330.765625 250.78125 330.160156 253.945312 324.984375 259.234375 C 319.777344 264.554688 313.976562 266.246094 313.925781 266.265625 C 311.597656 266.449219 309.472656 266.351562 309.394531 266.046875 C 309.394531 259.96875 298.984375 245.824219 293.65625 241.15625 C 288.21875 236.390625 283.875 232.976562 276.492188 228.484375 C 268.976562 223.910156 260.613281 204.726562 260.519531 204.539062 L 259.792969 201.949219 C 259.792969 201.949219 259.390625 196.773438 259.277344 195.429688 C 259.550781 195.585938 259.90625 195.804688 259.90625 195.804688 L 262.46875 197.296875 L 265.414062 198.425781 C 265.4375 198.433594 269.269531 199.183594 269.269531 199.183594 C 269.269531 199.191406 271.410156 200.289062 271.410156 200.289062 L 273.398438 201.582031 L 276.488281 203.8125 L 279.660156 205.480469 C 279.722656 205.5 283.46875 205.691406 283.46875 205.691406 L 283.554688 205.382812 C 283.554688 205.382812 279.21875 203.34375 279.207031 203.34375 C 279.207031 203.28125 277.644531 200.609375 277.644531 200.609375 C 277.039062 199.738281 276.433594 198.867188 275.828125 197.992188 C 275.769531 197.953125 273.574219 196.640625 273.574219 196.640625 C 272.644531 196.5 271.714844 196.371094 270.78125 196.25 C 270.78125 196.226562 270.234375 195.753906 269.953125 195.5 C 270.195312 195.359375 270.65625 195.074219 270.65625 195.074219 C 270.65625 195.105469 273.644531 195.453125 273.652344 195.453125 C 273.652344 195.484375 276.3125 197.289062 276.3125 197.289062 L 279.214844 199.527344 C 279.261719 199.550781 281.960938 200.597656 281.960938 200.597656 L 282.316406 200.738281 L 281.132812 197.652344 C 280.390625 196.945312 279.644531 196.238281 278.894531 195.539062 L 275.605469 192.742188 C 275.578125 192.71875 273.019531 191.402344 273.019531 191.402344 C 272.996094 191.398438 270.265625 190.476562 270.265625 190.476562 C 270.265625 190.472656 267.378906 188.628906 267.378906 188.628906 C 267.378906 188.628906 267.410156 188.433594 267.429688 188.265625 C 267.796875 188.402344 271.429688 189.863281 271.429688 189.863281 C 271.449219 189.863281 274.910156 190.804688 274.910156 190.804688 C 274.90625 190.792969 277.8125 191.917969 277.8125 191.917969 C 277.800781 191.90625 281.984375 193.949219 281.984375 193.949219 C 282.023438 193.964844 285.488281 194.71875 285.488281 194.71875 C 285.546875 194.71875 289.761719 193.964844 289.761719 193.964844 C 289.816406 193.941406 293.835938 191.144531 293.835938 191.144531 C 293.882812 191.066406 294.621094 189.40625 294.621094 189.40625 L 294.78125 189.019531 L 293.488281 189.554688 C 293.476562 189.554688 289.839844 191.402344 289.835938 191.402344 L 287.316406 191.964844 C 287.316406 191.953125 284.472656 191.394531 284.46875 191.394531 L 284.472656 191.394531 C 284.472656 191.359375 282.167969 189.214844 282.167969 189.214844 L 278.894531 186.046875 L 275.933594 184.53125 C 275.894531 184.511719 272.433594 183.953125 272.433594 183.953125 C 272.433594 183.945312 270.328125 182.875 270.289062 182.855469 C 270.300781 182.855469 270.304688 182.816406 270.304688 182.761719 C 270.304688 182.507812 270.242188 181.953125 270.214844 181.695312 L 274.566406 182.058594 L 279.335938 181.675781 C 279.335938 181.6875 282.019531 182.234375 282.019531 182.234375 L 284.734375 183.355469 L 287.515625 183.730469 L 288.015625 183.800781 L 284.917969 180.835938 C 284.886719 180.820312 281.792969 178.582031 281.792969 178.582031 C 281.753906 178.566406 279.199219 177.628906 279.199219 177.628906 C 279.152344 177.617188 274.886719 177.257812 274.800781 177.25 C 274.835938 177.246094 274.84375 177.175781 274.84375 177.070312 C 274.84375 176.808594 274.800781 176.441406 274.777344 176.25 L 276.792969 175.910156 C 276.792969 175.921875 280.019531 176.648438 280.019531 176.648438 C 280.019531 176.660156 283.074219 178.492188 283.074219 178.492188 L 286.378906 179.621094 C 286.472656 179.625 291.199219 178.882812 291.199219 178.882812 L 291.484375 178.84375 L 290.042969 176.941406 C 289.960938 176.878906 287.585938 176.140625 287.582031 176.140625 C 287.582031 176.125 285.621094 174.675781 285.621094 174.675781 L 282.695312 172.621094 C 282.65625 172.597656 280.472656 171.855469 280.472656 171.855469 C 280.4375 171.84375 276.996094 171.292969 276.988281 171.292969 C 276.988281 171.253906 275.296875 169.699219 275.261719 169.671875 C 275.3125 169.664062 275.417969 169.121094 275.457031 168.875 L 277.277344 169.382812 L 279.613281 170.496094 L 282.9375 171.550781 L 282.203125 170.085938 L 280.914062 168.738281 L 279.78125 167.277344 L 280.269531 167.15625 C 280.269531 167.199219 283.808594 169.003906 283.808594 169.003906 L 286.5625 169.941406 C 286.5625 169.957031 288.6875 171.953125 288.6875 171.953125 C 288.71875 171.980469 292.746094 174.25 292.746094 174.25 L 293.152344 174.480469 L 292.417969 172.511719 C 292.394531 172.46875 290.210938 169.675781 290.210938 169.675781 L 288.394531 166.53125 C 288.378906 166.496094 285.085938 163.148438 285.085938 163.148438 C 285.054688 163.117188 280.867188 160.878906 280.855469 160.878906 C 280.855469 160.859375 279.261719 159.050781 279.261719 159.050781 C 278.285156 158.058594 277.308594 157.0625 276.335938 156.066406 C 276.335938 156.027344 276.039062 155.003906 275.886719 154.484375 C 276.378906 154.644531 278.722656 155.421875 278.722656 155.421875 L 282 156.347656 C 282 156.355469 284.339844 157.8125 284.339844 157.8125 C 284.339844 157.828125 286.292969 160.199219 286.292969 160.199219 C 286.363281 160.25 289.46875 161.558594 289.46875 161.558594 L 297.390625 162.585938 L 297.851562 162.644531 L 295.675781 160.355469 C 295.621094 160.3125 291.425781 158.449219 291.425781 158.449219 L 288.90625 156.613281 C 288.90625 156.578125 287.5 154.050781 287.5 154.050781 L 286.03125 151.449219 C 286.003906 151.410156 283.632812 149.175781 283.632812 149.175781 C 283.597656 149.148438 280.679688 147.472656 280.679688 147.472656 L 277.792969 145.070312 C 277.792969 145.046875 277.097656 143.609375 276.652344 142.648438 L 278.65625 144.582031 L 282.488281 147.9375 C 282.535156 147.964844 285.460938 149.269531 285.460938 149.269531 L 287.960938 151.292969 L 290.871094 154.261719 C 290.972656 154.304688 295.515625 154.945312 295.515625 154.945312 L 296.085938 155.03125 L 291.46875 151.03125 C 291.46875 150.960938 290.425781 147.757812 290.425781 147.757812 C 289.628906 146.980469 288.824219 146.210938 288.007812 145.449219 L 286.753906 143.976562 C 286.753906 143.9375 285.503906 140.125 285.503906 140.125 C 284.644531 139.230469 283.777344 138.34375 282.90625 137.460938 C 282.90625 137.441406 278.734375 133.550781 278.726562 133.535156 L 278.726562 133.527344 C 278.726562 133.46875 278.578125 132.875 278.492188 132.484375 C 278.8125 132.644531 279.246094 132.875 279.246094 132.875 L 283.074219 135.101562 C 283.109375 135.121094 287.664062 136.421875 287.664062 136.421875 L 292.417969 137.550781 L 297.90625 138.425781 L 296.617188 135.8125 C 296.523438 135.730469 293.792969 134.617188 293.792969 134.617188 L 291.257812 133.140625 C 291.234375 133.132812 288.140625 131.824219 288.140625 131.824219 L 285.414062 130.710938 C 285.414062 130.683594 283.644531 128.402344 282.65625 127.140625 C 283.605469 127.777344 285.066406 128.769531 285.066406 128.769531 C 285.136719 128.792969 287.523438 128.980469 287.523438 128.980469 L 295.003906 128.984375 C 295.003906 129.003906 298.035156 130.640625 298.035156 130.648438 C 298.035156 130.65625 300.617188 133.441406 300.617188 133.441406 L 300.957031 133.808594 L 300.644531 130.664062 C 300.613281 130.574219 298.972656 128.523438 298.972656 128.523438 C 298.925781 128.484375 294.539062 126.0625 294.539062 126.0625 L 291.050781 124.75 C 291.027344 124.742188 285.773438 123.816406 285.746094 123.816406 L 285.746094 123.808594 C 285.746094 123.757812 284.742188 122.5625 284.742188 122.5625 C 284.722656 122.550781 280.898438 119.011719 280.898438 119.011719 C 280.28125 118.691406 279.660156 118.371094 279.039062 118.054688 C 279.039062 118.046875 278.457031 117.445312 278.09375 117.066406 L 280.058594 117.066406 C 280.058594 117.097656 283.074219 118.910156 283.074219 118.910156 C 283.097656 118.925781 287.121094 120.222656 287.121094 120.222656 L 292.253906 120.972656 L 292.25 120.972656 C 292.25 121.027344 294.152344 123.160156 294.152344 123.160156 L 296.929688 124.863281 C 297.984375 125.058594 299.035156 125.246094 300.09375 125.429688 L 300.53125 125.496094 L 294.039062 117.539062 C 293.996094 117.5 290.890625 115.828125 290.890625 115.828125 C 290.863281 115.8125 287.222656 114.695312 287.222656 114.695312 C 287.222656 114.65625 284.015625 111.019531 284.015625 111.019531 C 283.980469 110.980469 279.964844 108.566406 279.964844 108.566406 C 278.996094 108.320312 278.023438 108.082031 277.046875 107.855469 C 277.230469 107.5625 277.832031 106.566406 277.832031 106.558594 C 277.84375 106.589844 281.050781 105.136719 281.050781 105.136719 C 281.050781 105.144531 285.75 104.21875 285.75 104.21875 C 285.878906 104.109375 286.230469 102.988281 286.230469 102.988281 C 286.171875 102.796875 284.164062 101.496094 284.164062 101.496094 C 283.363281 101.234375 282.5625 100.980469 281.757812 100.726562 C 281.609375 100.746094 280.339844 101.492188 280.339844 101.496094 C 280.339844 101.472656 276.40625 101.652344 276.40625 101.652344 C 276.40625 101.648438 271.707031 100.542969 271.707031 100.539062 C 271.707031 100.515625 266.863281 96.480469 266.863281 96.480469 C 266.121094 96.097656 265.378906 95.71875 264.636719 95.34375 C 264.582031 95.332031 256.582031 94.398438 256.558594 94.398438 C 256.558594 94.296875 254.679688 91.488281 254.679688 91.488281 L 252.105469 88.675781 C 252.097656 88.660156 248.832031 85.714844 248.832031 85.714844 L 248.730469 85.929688 L 247.632812 88.351562 C 247.640625 88.328125 246.554688 90.003906 246.554688 90.003906 L 246.554688 90.046875 C 246.554688 90.355469 246.707031 91.972656 246.707031 91.972656 C 246.753906 92.074219 247.8125 93.160156 247.835938 93.191406 C 247.78125 93.191406 247.4375 94.875 247.4375 94.890625 C 247.425781 94.773438 243.046875 94.953125 243.039062 94.953125 C 243.039062 94.929688 239.464844 93.289062 239.464844 93.289062 C 239.441406 93.273438 236.699219 92.34375 236.699219 92.34375 C 236.644531 92.328125 230.265625 92.523438 230.265625 92.523438 C 230.125 92.597656 229.042969 94.273438 229.042969 94.273438 L 228.898438 94.492188 L 231.703125 94.898438 C 231.703125 94.90625 232.121094 95.171875 232.351562 95.320312 L 231.632812 95.90625 C 231.632812 95.871094 227.726562 95.691406 227.726562 95.691406 C 227.664062 95.703125 224.917969 96.8125 224.917969 96.8125 L 224.632812 96.9375 L 225.992188 97.851562 C 226.078125 97.882812 231.914062 98.066406 231.914062 98.066406 L 236.246094 99.183594 L 236.246094 99.1875 C 236.246094 99.246094 237.070312 100.425781 237.070312 100.425781 C 237.070312 100.425781 237.65625 101.253906 237.875 101.578125 L 236.019531 102.597656 C 236.042969 102.597656 230.75 104.828125 230.75 104.828125 L 219.804688 110.972656 C 219.796875 110.964844 212.601562 112.039062 212.601562 112.039062 C 212.546875 112.054688 209.785156 113.59375 209.785156 113.59375 C 209.722656 113.636719 207.507812 116.710938 207.507812 116.710938 C 207.484375 116.75 206.226562 120.574219 206.226562 120.574219 C 206.128906 127.074219 206.386719 127.226562 206.480469 127.277344 C 206.695312 127.414062 208.574219 128.476562 210.027344 127.699219 C 211.671875 126.804688 215.191406 125.921875 217.019531 125.535156 C 217.921875 125.351562 218.347656 125.675781 218.421875 126.007812 C 218.519531 126.375 218.246094 126.871094 217.574219 127.058594 L 217.195312 127.167969 C 214.015625 128.03125 210.769531 129.078125 210.875 130.304688 L 211.4375 131.242188 C 212.855469 132.277344 216.542969 131.785156 218.5 131.34375 L 220.546875 130.769531 C 222.308594 130.230469 224.316406 129.632812 226.027344 129.824219 C 227.015625 129.9375 227.886719 130.363281 228.917969 130.847656 C 230.3125 131.523438 231.90625 132.289062 234.285156 132.445312 C 238.253906 132.71875 240.960938 133.519531 241.171875 133.753906 C 241.703125 134.835938 241.363281 136.4375 241.09375 137.722656 L 240.890625 138.886719 C 239.78125 148.957031 228.539062 160.335938 223.125 165.796875 C 221.660156 167.277344 220.695312 168.25 220.484375 168.660156 L 219.863281 170.097656 C 219.335938 171.433594 218.910156 172.585938 217.191406 173.277344 C 216.199219 173.664062 213.882812 175.40625 211.195312 177.417969 C 207.3125 180.3125 202.503906 183.914062 201.175781 183.757812 C 198.957031 183.496094 188.601562 176.367188 188.164062 175.925781 C 178.078125 166.167969 173.855469 168.167969 171.332031 169.363281 L 170.929688 169.546875 C 167.921875 170.917969 164.761719 179.441406 164.476562 181.269531 L 163.257812 186.519531 L 162.320312 190.378906 C 162.042969 191.683594 160.800781 194.890625 159.617188 197.984375 L 157.183594 204.730469 C 156.78125 206.292969 155.804688 208.488281 155.011719 210.261719 L 153.9375 212.886719 C 153.1875 215.972656 153.171875 232.863281 154.476562 234.359375 L 154.535156 234.421875 L 154.792969 234.496094 C 156.101562 234.359375 158.914062 231.464844 160.261719 230.066406 L 160.574219 229.742188 C 161.714844 228.59375 162.925781 225.535156 162.925781 224.246094 C 162.925781 222.988281 162.335938 220.351562 162.105469 219.632812 C 160.277344 214.054688 160.96875 208.742188 161.300781 206.191406 L 161.433594 205.058594 C 161.527344 203.875 162.714844 202.5625 163.863281 201.308594 L 165.320312 199.625 C 166.121094 198.5625 167.007812 198.210938 167.796875 197.894531 L 169.097656 197.152344 L 169.300781 196.941406 C 170.160156 196.078125 171.605469 194.621094 172.238281 192.671875 L 173.472656 187.332031 L 173.742188 185.902344 C 173.804688 185.617188 173.949219 185.460938 174.191406 185.40625 C 174.683594 185.300781 175.417969 185.6875 175.730469 186.105469 L 184.660156 196.464844 C 186.945312 198.414062 189.296875 200.738281 189.296875 201.25 L 189.292969 201.292969 C 189.292969 201.285156 189.238281 201.296875 189.238281 201.296875 C 187.988281 201.425781 181.699219 200.085938 180.652344 199.785156 C 172.105469 197.28125 168.203125 197.722656 165.195312 201.488281 C 161.765625 205.800781 162.847656 219.011719 163.546875 220.460938 C 164.1875 221.773438 167.316406 237.867188 167.457031 240.011719 C 167.597656 242.117188 168.414062 245.878906 169.261719 246.742188 L 169.496094 246.980469 C 170.550781 248.023438 173.324219 250.8125 173.816406 253.5625 C 174.34375 256.554688 180.703125 264.570312 183.128906 265.289062 C 183.496094 265.394531 183.894531 265.320312 184.195312 265.082031 C 186.046875 263.769531 186.886719 257.355469 186.988281 254.644531 C 187.105469 251.269531 185.894531 249.640625 184.609375 247.894531 L 184.117188 247.210938 C 183.167969 245.917969 181.5 245.449219 180.402344 245.140625 C 179.933594 245.007812 179.289062 244.855469 179.289062 244.707031 C 179.289062 244.660156 179.160156 239.714844 177.582031 238.761719 C 176.355469 238.003906 175.101562 233.234375 174.953125 231.417969 C 174.808594 229.617188 174.109375 225.265625 173.175781 223.351562 C 172.226562 221.433594 171.433594 217.894531 171.835938 215.164062 C 172.003906 213.992188 172.839844 213.625 173.519531 213.519531 C 174.691406 213.332031 176.046875 213.835938 176.257812 214.246094 C 176.722656 215.1875 185.738281 220.625 188.777344 221.789062 C 190.664062 222.507812 193.222656 224.664062 195.476562 226.589844 C 197.082031 227.9375 198.464844 229.09375 199.324219 229.507812 C 200.488281 230.066406 203.78125 230.132812 206.425781 230.183594 C 207.832031 230.207031 209.289062 230.242188 209.484375 230.359375 C 208.410156 230.789062 208.425781 232.671875 208.511719 233.28125 C 209.609375 241.070312 237.949219 262.464844 240.140625 263.667969 C 242.675781 265.03125 251.777344 274.53125 252.574219 275.824219 C 253.398438 277.097656 254.199219 278.488281 254.046875 279.554688 C 253.828125 281.136719 254.460938 282.941406 255.726562 284.414062 C 256.9375 285.785156 258.519531 286.613281 259.980469 286.613281 C 261.246094 286.613281 262.089844 285.476562 262.714844 284.65625 L 262.847656 284.488281 C 264.539062 282.246094 267.046875 278.96875 267.371094 273.839844 C 267.714844 268.582031 270.117188 266.496094 270.902344 266.359375 C 271.253906 266.292969 271.507812 266.398438 271.601562 266.628906 C 271.699219 266.867188 271.582031 267.269531 271.105469 267.582031 C 270.070312 268.285156 269.421875 270.613281 268.710938 273.097656 C 268.703125 273.121094 268.445312 275.636719 268.445312 275.636719 C 268.386719 277.519531 268.3125 279.652344 266.433594 281.71875 C 263.625 284.765625 260.398438 291.785156 259.5625 300.652344 C 259.054688 305.992188 261.460938 313.6875 266.703125 323.492188 L 267.070312 324.191406 L 268.488281 326.574219 C 269.925781 328.878906 272.320312 332.714844 272.210938 333.609375 C 272.054688 334.875 271.9375 335.871094 269.753906 338.613281 C 267.351562 341.625 258.585938 351.824219 257.730469 351.988281 C 255.988281 351.988281 255.695312 352.210938 254.289062 353.273438 L 252.8125 354.398438 C 251.191406 355.546875 250.910156 356.410156 250.636719 357.167969 C 250.4375 357.742188 250.25 358.242188 249.496094 358.804688 L 248.933594 359.183594 C 248.816406 359.285156 248.5 359.730469 244.976562 363.257812 C 240.9375 367.25 239.136719 371.769531 239.757812 376.257812 C 239.957031 377.660156 241.167969 378.152344 244.753906 378.316406 C 248.332031 378.480469 256.539062 372.738281 256.90625 370.867188 L 257.03125 370.15625 C 257.347656 368.46875 257.871094 365.625 258.800781 365.214844 C 259.921875 364.726562 261.839844 362.511719 263.25 360.898438 L 263.523438 360.597656 C 264.273438 359.730469 264.453125 358.867188 264.632812 358.046875 C 264.785156 357.398438 264.925781 356.746094 265.351562 356.148438 C 265.6875 355.714844 266.175781 355.476562 266.742188 355.214844 C 267.832031 354.691406 269.207031 354.027344 270.195312 351.546875 C 271.175781 349.113281 277.042969 344.902344 281.328125 341.839844 C 283.519531 340.28125 285.234375 339.039062 285.644531 338.488281 C 286.210938 337.757812 286.554688 336.34375 286.554688 334.84375 C 286.554688 333.0625 286.078125 331.171875 284.957031 330.117188 C 283.332031 328.605469 281.800781 324.113281 281.34375 322.707031 L 281.34375 322.675781 C 281.34375 322.089844 281.289062 321.023438 281.203125 319.03125 C 281.191406 318.941406 281.191406 318.847656 281.191406 318.761719 C 281.191406 313.496094 289.015625 308.347656 292.394531 306.128906 L 293.933594 305.066406 C 306.179688 294.265625 308.578125 286.054688 309.03125 283.800781 L 309.28125 281.097656 C 309.355469 279.230469 309.417969 277.445312 310.546875 277.214844 C 310.988281 277.128906 311.71875 277.484375 312.167969 278.015625 C 312.421875 278.300781 312.792969 278.902344 312.546875 279.59375 C 311.988281 281.109375 311.800781 296.339844 311.796875 296.972656 C 311.835938 297.078125 313.113281 298.582031 313.113281 298.582031 L 313.347656 298.855469 L 313.417969 298.5 C 313.433594 298.324219 314.136719 294.171875 314.136719 292.703125 C 314.136719 291.0625 316.777344 284.03125 317.414062 283.90625 C 317.414062 283.929688 317.457031 283.988281 317.457031 283.988281 C 317.765625 284.960938 318.160156 287.363281 318.160156 289.894531 C 318.160156 292.382812 317.78125 294.996094 316.574219 296.511719 C 314.738281 298.78125 313.28125 302.375 312.328125 304.746094 L 311.445312 306.761719 C 311.347656 307.039062 311.304688 307.335938 311.320312 307.632812 C 311.320312 309.5625 312.3125 313.675781 312.964844 314.441406 C 313.136719 314.625 313.273438 314.625 313.371094 314.589844 C 313.582031 314.507812 313.773438 314.234375 313.773438 312.617188 C 313.773438 306.460938 318.949219 302 319.007812 301.964844 C 323.570312 298.347656 324.5625 291.636719 324.5625 286.523438 C 324.5625 282.652344 323.996094 279.699219 323.980469 279.617188 C 323.257812 278.546875 322.527344 277.484375 321.789062 276.425781 C 321.898438 276.480469 322.492188 275.992188 322.6875 275.832031 C 322.886719 276.085938 324.960938 278.84375 324.960938 278.84375 C 325.3125 279.332031 326.199219 280.761719 326.199219 281.328125 C 326.199219 284.496094 326.6875 286.664062 327.035156 288.253906 L 327.121094 288.632812 C 327.488281 290.316406 329.765625 295.707031 329.867188 295.9375 L 330.113281 296.503906 L 330.1875 295.886719 C 330.1875 295.859375 330.546875 293.042969 330.1875 290.632812 C 329.980469 289.28125 330.238281 287.625 330.5 285.835938 L 330.914062 281.726562 C 330.914062 278.386719 330.4375 276.28125 329.246094 274.359375 L 328.640625 273.4375 C 328.402344 273.0625 328.167969 272.695312 328.195312 272.621094 L 328.640625 272.425781 C 338.273438 269.160156 342.753906 262.066406 344.582031 258.140625 C 346.496094 253.980469 346.597656 247.570312 346.597656 246.339844 C 346.597656 244.734375 346.527344 236.40625 345.128906 232.128906 C 344.308594 229.605469 344.570312 226.894531 344.84375 223.96875 L 345.144531 218.960938 C 345.144531 215.535156 346.945312 212.988281 348.695312 210.53125 L 350.777344 207.304688 C 352.140625 204.617188 351.414062 202.261719 350.867188 201.589844 Z M 350.867188 201.589844 "/>
<path style=" stroke:none;fill-rule:evenodd;fill:rgb(0%,0%,0%);fill-opacity:1;" d="M 243.0625 94.339844 C 243.222656 94.351562 245.269531 93.378906 245.269531 93.378906 C 245.359375 93.191406 244.882812 91.253906 244.882812 91.253906 C 243.40625 89.503906 241.921875 87.757812 240.429688 86.019531 L 240.210938 85.761719 L 240.136719 86.082031 L 239.65625 88.179688 C 239.660156 88.160156 238.246094 91.546875 238.246094 91.546875 L 238.179688 91.691406 L 241.164062 93.214844 Z M 243.0625 94.339844 "/>
<path style=" stroke:none;fill-rule:evenodd;fill:rgb(100%,100%,100%);fill-opacity:1;" d="M 243.949219 107.785156 C 244.421875 107.960938 245.132812 107.882812 245.808594 107.582031 C 246.839844 107.097656 247.449219 106.265625 247.1875 105.671875 L 246.714844 105.246094 C 246.246094 105.066406 245.535156 105.144531 244.871094 105.453125 C 243.984375 105.847656 243.417969 106.503906 243.417969 107.058594 C 243.417969 107.160156 243.449219 107.269531 243.480469 107.355469 Z M 261.765625 100.429688 L 262.617188 100.890625 C 262.753906 101.1875 263.019531 101.40625 263.339844 101.484375 C 263.707031 101.5625 264.089844 101.46875 264.378906 101.226562 C 264.605469 101.046875 264.660156 100.710938 264.515625 100.289062 C 264.289062 99.585938 263.554688 98.820312 262.761719 98.820312 C 261.742188 98.820312 260.8125 98.9375 260.8125 99.6875 C 260.8125 100.109375 261.300781 100.273438 261.765625 100.429688 Z M 262.785156 103.4375 C 262.390625 103.726562 262.21875 104.117188 262.328125 104.515625 L 262.410156 104.84375 C 262.511719 105.234375 262.546875 105.316406 262.90625 105.355469 L 263.554688 105.472656 C 264.382812 105.683594 265.695312 105.167969 265.996094 104.503906 C 266.09375 104.289062 266.175781 103.871094 265.609375 103.476562 C 264.636719 102.828125 263.4375 102.96875 262.785156 103.4375 Z M 265.4375 114.980469 C 265.199219 114.867188 265.300781 114.488281 265.484375 113.9375 C 265.632812 113.492188 265.769531 113.058594 265.539062 112.824219 C 265.335938 112.628906 264.976562 112.644531 264.363281 112.875 C 262.15625 113.667969 261.820312 115.914062 261.578125 117.554688 L 261.5 118.0625 C 261.375 118.792969 261.75 119.042969 261.984375 119.125 C 262.742188 119.394531 264.117188 118.703125 264.425781 118.179688 C 264.769531 117.609375 266.675781 117.089844 268.0625 116.710938 L 268.59375 116.566406 C 269.238281 116.390625 269.566406 116.144531 269.613281 115.808594 C 269.683594 115.371094 269.199219 114.972656 268.765625 114.714844 C 268.367188 114.480469 267.773438 114.648438 267.152344 114.828125 C 266.535156 114.996094 265.871094 115.167969 265.4375 114.980469 Z M 242.136719 115.824219 C 242.621094 115.777344 243.003906 115.585938 243.246094 115.238281 C 243.949219 114.191406 243.984375 112.707031 243.300781 111.359375 C 242.644531 110.078125 241.515625 109.253906 240.363281 109.214844 L 240.378906 109.21875 L 240.128906 109.183594 L 238.003906 109.351562 C 236.886719 109.601562 235.84375 110.425781 235.59375 111.242188 C 235.464844 111.652344 235.539062 112.03125 235.820312 112.3125 C 237.523438 114.117188 240.460938 115.953125 242.136719 115.824219 Z M 221.242188 114.117188 C 221.496094 114.742188 222.660156 114.8125 224.371094 114.304688 L 224.746094 114.191406 L 227.808594 112.992188 L 232.246094 110.074219 C 232.375 109.972656 233.535156 109.101562 233.296875 108.542969 C 233.128906 108.179688 232.550781 108.242188 232.132812 108.320312 C 230.910156 108.542969 229.707031 109.132812 228.429688 109.753906 L 226.625 110.59375 L 225.828125 110.921875 C 223.078125 112.054688 220.828125 113.074219 221.242188 114.117188 Z M 211.90625 117.367188 C 210.984375 117.367188 210.570312 117.867188 210.230469 118.308594 L 209.820312 118.777344 C 209.109375 119.386719 208.890625 120.859375 208.980469 121.980469 C 209.015625 122.449219 209.148438 123.292969 209.605469 123.5625 C 210.484375 124.105469 210.90625 123.722656 211.804688 122.871094 L 212.5 122.273438 C 213.382812 121.535156 214.40625 120.695312 214.53125 119.40625 C 214.59375 118.863281 214.464844 118.414062 214.160156 118.078125 C 213.621094 117.492188 212.636719 117.367188 211.90625 117.367188 Z M 217.011719 117.773438 C 216.75 117.714844 216.589844 117.800781 216.507812 117.886719 C 216.238281 118.148438 216.347656 118.707031 216.433594 119.15625 L 216.484375 119.46875 L 216.429688 119.660156 C 216.371094 119.820312 216.300781 120.023438 216.429688 120.199219 C 216.542969 120.371094 216.820312 120.449219 217.292969 120.449219 C 217.890625 120.453125 217.953125 120.390625 218.152344 119.855469 L 218.316406 119.445312 C 218.460938 119.082031 218.460938 118.753906 218.324219 118.496094 C 218.078125 118.039062 217.464844 117.863281 217.011719 117.773438 Z M 221.949219 125.773438 C 222.601562 125.742188 223.113281 125.207031 223.113281 124.554688 C 223.113281 123.902344 222.601562 123.367188 221.949219 123.335938 C 221.628906 123.339844 221.324219 123.46875 221.097656 123.699219 C 220.875 123.925781 220.75 124.234375 220.753906 124.554688 C 220.753906 125.226562 221.289062 125.773438 221.949219 125.773438 Z M 244.1875 122.804688 C 243.835938 122.742188 243.480469 122.875 243.261719 123.152344 C 242.929688 123.535156 240.925781 124.910156 239.460938 125.917969 L 237.570312 127.261719 L 237.417969 127.410156 C 237.179688 127.632812 237.0625 127.769531 237.21875 128.230469 L 237.449219 128.554688 L 237.945312 128.457031 L 238.683594 128.183594 L 239.742188 128.015625 C 240.789062 127.882812 241.933594 127.726562 242.472656 127.171875 L 243.175781 126.023438 L 244.21875 124.347656 C 244.722656 123.792969 244.746094 123.414062 244.675781 123.199219 Z M 246.382812 129.585938 C 246.382812 130.207031 246.691406 130.449219 246.867188 130.535156 C 247.335938 130.785156 248.011719 130.542969 248.414062 129.984375 L 249.773438 128.800781 C 250.507812 128.269531 251.332031 127.675781 252.058594 126.75 C 252.734375 125.878906 252.445312 125.34375 252.203125 125.117188 C 251.742188 124.664062 250.792969 124.5625 250.46875 124.828125 L 250.078125 125.09375 C 249.1875 125.671875 247.082031 127.039062 246.550781 128.703125 C 246.449219 128.984375 246.390625 129.285156 246.382812 129.585938 Z M 255.238281 128.917969 C 254.960938 128.511719 254.484375 128.34375 254.128906 128.515625 L 253.171875 129.242188 C 252.496094 129.792969 251.65625 130.492188 250.929688 130.695312 C 249.160156 131.171875 246.761719 131.960938 246.613281 133.175781 L 246.609375 133.335938 C 246.609375 133.667969 246.761719 133.867188 246.90625 133.980469 C 247.578125 134.527344 249.207031 134.203125 250.390625 133.757812 C 252.199219 133.089844 253.300781 132.269531 254.722656 130.980469 C 255.59375 130.183594 255.554688 129.386719 255.238281 128.917969 Z M 248.359375 142.898438 L 247.785156 142.832031 C 246.296875 143.230469 243.753906 147.609375 241.96875 150.871094 L 241.648438 151.4375 L 236.300781 161.476562 L 234.625 164.671875 C 234.4375 164.960938 234.5 165.386719 234.78125 165.664062 C 235.039062 165.925781 235.496094 166.066406 236.042969 165.71875 C 236.9375 165.125 240.191406 161.894531 241.703125 159.359375 L 243.710938 156.585938 C 245 154.902344 246.46875 153.019531 247.332031 150.777344 L 247.632812 150.003906 C 249.675781 144.707031 249.996094 143.898438 248.359375 142.898438 Z M 268.472656 123.601562 C 267.832031 123.585938 267.304688 124.09375 267.289062 124.734375 C 267.289062 125.359375 267.820312 125.867188 268.472656 125.867188 C 269.128906 125.867188 269.648438 125.359375 269.648438 124.734375 C 269.644531 124.429688 269.519531 124.136719 269.296875 123.925781 C 269.078125 123.710938 268.78125 123.59375 268.472656 123.601562 Z M 267.910156 128.332031 C 267.910156 128.957031 268.441406 129.464844 269.097656 129.464844 C 269.402344 129.46875 269.695312 129.351562 269.914062 129.140625 C 270.128906 128.925781 270.253906 128.636719 270.257812 128.332031 C 270.25 127.695312 269.730469 127.1875 269.097656 127.195312 C 268.457031 127.183594 267.929688 127.691406 267.910156 128.332031 Z M 269 130.84375 C 268.261719 130.84375 267.648438 131.335938 267.648438 131.921875 C 267.648438 132.515625 268.261719 133 269 133 C 269.75 133 270.355469 132.515625 270.355469 131.921875 C 270.359375 131.335938 269.75 130.84375 269 130.84375 Z M 268.945312 133.988281 C 268.09375 133.988281 267.414062 134.523438 267.414062 135.1875 C 267.414062 135.84375 268.09375 136.378906 268.945312 136.378906 C 269.796875 136.378906 270.464844 135.839844 270.464844 135.1875 C 270.464844 134.523438 269.796875 133.988281 268.945312 133.988281 Z M 269 137.976562 C 268.0625 137.976562 267.289062 138.535156 267.289062 139.238281 C 267.289062 139.929688 268.0625 140.488281 269 140.488281 C 269.941406 140.488281 270.703125 139.929688 270.703125 139.238281 C 270.703125 138.535156 269.941406 137.976562 269 137.976562 Z M 268.421875 144.664062 C 269.484375 144.570312 270.265625 143.988281 270.207031 143.3125 L 269.871094 142.699219 C 269.507812 142.390625 268.867188 142.238281 268.21875 142.296875 C 267.191406 142.390625 266.433594 142.945312 266.433594 143.582031 L 266.4375 143.644531 L 266.78125 144.253906 C 267.15625 144.570312 267.765625 144.726562 268.421875 144.664062 Z M 266.097656 148 L 266.09375 147.96875 Z M 268.363281 148.863281 C 269.554688 148.6875 270.394531 148.035156 270.296875 147.359375 L 269.949219 146.800781 C 269.53125 146.480469 268.789062 146.351562 268.027344 146.464844 C 266.859375 146.628906 265.996094 147.296875 266.09375 147.96875 L 266.453125 148.527344 C 266.875 148.847656 267.601562 148.972656 268.363281 148.863281 Z M 266.359375 150.890625 C 266.359375 151.625 267.25 152.210938 268.417969 152.210938 C 269.585938 152.210938 270.464844 151.625 270.464844 150.890625 C 270.464844 150.15625 269.585938 149.578125 268.417969 149.578125 C 267.246094 149.582031 266.359375 150.15625 266.359375 150.890625 Z M 270.003906 155.183594 C 270.003906 154.40625 268.941406 153.8125 267.582031 153.8125 C 266.238281 153.8125 265.175781 154.40625 265.175781 155.183594 C 265.175781 155.957031 266.238281 156.5625 267.582031 156.5625 C 268.941406 156.5625 270.003906 155.957031 270.003906 155.183594 Z M 268.457031 158.808594 C 268.457031 158.046875 267.664062 157.433594 266.699219 157.433594 C 265.722656 157.433594 264.925781 158.046875 264.925781 158.808594 C 264.925781 159.566406 265.722656 160.183594 266.699219 160.183594 C 267.664062 160.183594 268.457031 159.566406 268.457031 158.808594 Z M 267.628906 163.339844 C 267.628906 162.484375 266.789062 161.78125 265.742188 161.78125 C 264.710938 161.78125 263.871094 162.484375 263.871094 163.339844 C 263.871094 164.199219 264.707031 164.890625 265.742188 164.890625 C 266.789062 164.890625 267.628906 164.199219 267.628906 163.339844 Z M 266.097656 167.75 C 266.097656 166.980469 265.40625 166.371094 264.566406 166.371094 C 263.730469 166.371094 263.027344 166.976562 263.027344 167.75 C 263.027344 168.503906 263.730469 169.121094 264.566406 169.121094 C 265.40625 169.125 266.097656 168.503906 266.097656 167.75 Z M 263.445312 170.359375 C 262.636719 170.359375 261.96875 170.972656 261.96875 171.734375 C 261.96875 172.488281 262.636719 173.105469 263.445312 173.105469 C 264.253906 173.105469 264.914062 172.488281 264.914062 171.734375 C 264.917969 170.972656 264.253906 170.359375 263.445312 170.359375 Z M 262.195312 176.976562 C 263.027344 176.976562 263.730469 176.441406 263.730469 175.777344 C 263.730469 175.117188 263.03125 174.589844 262.195312 174.589844 C 261.363281 174.589844 260.675781 175.121094 260.675781 175.777344 C 260.675781 176.4375 261.363281 176.976562 262.195312 176.976562 Z M 260.789062 179.871094 C 261.558594 179.871094 262.191406 179.421875 262.191406 178.859375 C 262.191406 178.296875 261.570312 177.847656 260.789062 177.847656 C 259.980469 177.847656 259.371094 178.292969 259.371094 178.859375 C 259.371094 179.421875 260.003906 179.871094 260.789062 179.871094 Z M 259.421875 182.660156 C 260.15625 182.660156 260.777344 182.203125 260.777344 181.640625 C 260.777344 181.082031 260.15625 180.628906 259.421875 180.628906 C 258.667969 180.628906 258.070312 181.082031 258.070312 181.640625 C 258.066406 182.203125 258.667969 182.660156 259.421875 182.660156 Z M 219.425781 180.191406 L 219.671875 180.238281 L 221.519531 179.90625 C 223.15625 179.542969 225.628906 178.992188 228.664062 178.910156 C 230.886719 178.851562 233.292969 179.625 235.039062 180.195312 C 236.628906 180.726562 237.417969 180.953125 237.71875 180.628906 C 237.910156 180.410156 237.792969 180.097656 237.6875 179.878906 C 237.210938 178.847656 235.121094 175.460938 228.300781 175.308594 C 223.867188 175.207031 220.253906 178.21875 219.480469 179.492188 C 219.328125 179.753906 219.285156 179.945312 219.363281 180.085938 Z M 244.796875 193.015625 C 245.230469 192.738281 245.417969 192.25 245.386719 191.546875 C 245.242188 188.785156 244.503906 188.472656 242.980469 188.472656 C 241.4375 188.472656 240.320312 190.019531 240.320312 190.824219 C 240.320312 191.578125 240.878906 192.242188 241.953125 192.78125 C 242.5625 193.101562 243.964844 193.5625 244.796875 193.015625 Z M 265.726562 226.753906 C 267.925781 227.78125 268.699219 228.148438 269.027344 228.25 C 269.039062 228.25 269.050781 228.28125 269.050781 228.28125 C 269.050781 228.28125 269.066406 228.269531 269.066406 228.261719 C 269.21875 228.308594 269.269531 228.292969 269.304688 228.238281 C 269.285156 228.222656 269.199219 228.09375 269.152344 228.058594 C 269.175781 228.035156 269.203125 227.984375 269.203125 227.984375 C 269.203125 227.984375 269.066406 227.925781 269.054688 227.914062 C 267.601562 226.074219 258.835938 213.617188 256.972656 205.417969 C 256.679688 204.066406 256.335938 202.808594 255.453125 202.304688 C 254.957031 202.027344 254.332031 202.007812 253.570312 202.261719 L 253.566406 202.261719 C 253.390625 202.3125 253.261719 202.457031 253.183594 202.671875 C 253.109375 202.902344 253.074219 203.144531 253.085938 203.386719 C 253.085938 206.316406 256.207031 214.378906 257.226562 216.035156 C 262.867188 225.1875 265.621094 226.691406 265.726562 226.753906 Z M 337.351562 230.316406 L 337.015625 230.382812 C 337.027344 230.433594 337.101562 232.878906 337.101562 236.019531 C 337.101562 240.601562 336.945312 246.710938 336.148438 249.457031 C 335.507812 251.679688 332.558594 255.933594 330.175781 259.339844 C 330.175781 259.339844 327.40625 263.496094 327.40625 263.5 C 327.289062 264.367188 327.496094 264.753906 327.863281 264.996094 C 328.140625 265.1875 329.144531 265.679688 330.542969 264.011719 L 332.3125 262.140625 C 334.671875 259.785156 337.605469 256.863281 339.671875 250.410156 C 341.941406 243.324219 337.390625 230.4375 337.351562 230.316406 Z M 263.554688 253.398438 C 263.769531 253.609375 264.113281 253.671875 264.472656 253.539062 C 265.042969 253.34375 265.4375 252.832031 265.488281 252.234375 C 265.574219 251.347656 266.191406 250.15625 267.109375 249.140625 C 268.105469 248.007812 268.027344 246.292969 266.933594 245.257812 L 265.757812 244.789062 C 265.003906 244.816406 264.441406 245.417969 264.410156 245.4375 C 264.015625 247.320312 263.628906 249.207031 263.253906 251.097656 L 263.253906 251.09375 C 263.144531 251.40625 263.042969 252.90625 263.554688 253.398438 Z M 301.765625 274.289062 L 301.707031 274.265625 L 301.644531 274.289062 C 301.597656 274.324219 300.613281 274.785156 300.332031 275.746094 C 300.140625 276.394531 300.5 276.957031 300.777344 277.421875 L 301.109375 278.039062 L 301.25 279.273438 L 301.472656 281.085938 C 301.589844 281.472656 301.953125 281.726562 302.355469 281.703125 C 302.816406 281.6875 303.355469 281.332031 303.53125 280.613281 C 303.769531 279.640625 303.886719 278.324219 303.886719 276.570312 C 303.882812 274.96875 301.855469 274.308594 301.765625 274.289062 Z M 242.460938 259.539062 C 242.328125 259.386719 228.324219 244.183594 225.296875 240.203125 C 222.210938 236.121094 220.738281 235.8125 219.226562 236.648438 C 218.613281 238.925781 222.113281 242.9375 225.175781 245.878906 C 229.457031 250.003906 242.109375 259.691406 242.238281 259.785156 Z M 187.5625 214.675781 C 184.722656 212.914062 179.808594 211.9375 179.761719 211.914062 L 179.632812 212.214844 L 185.082031 216.324219 C 185.980469 217.058594 189.945312 219.519531 191.226562 218.515625 C 191.4375 217.234375 190.0625 216.246094 187.5625 214.675781 Z M 186.230469 191.421875 L 186.613281 191.257812 C 187.105469 190.703125 185.976562 189.136719 184.605469 187.867188 C 183.367188 186.726562 182.109375 185.988281 181.449219 186.023438 L 181.074219 186.1875 C 180.960938 187.25 181.941406 188.515625 183.082031 189.578125 C 184.320312 190.71875 185.589844 191.460938 186.230469 191.421875 Z M 200.792969 189.4375 L 200.234375 189.46875 C 199.175781 189.914062 197.496094 192.605469 196.15625 196.007812 C 195.210938 198.414062 194.496094 201.035156 194.496094 202.617188 C 194.496094 203.367188 194.65625 203.875 195.015625 204.023438 L 195.566406 203.992188 C 196.625 203.539062 198.300781 200.84375 199.65625 197.449219 C 200.597656 195.039062 201.304688 192.417969 201.304688 190.835938 C 201.304688 190.089844 201.152344 189.578125 200.792969 189.4375 Z M 174.578125 172.824219 C 173.210938 172.824219 172.121094 173.472656 172.121094 174.292969 C 172.121094 175.105469 173.210938 175.75 174.578125 175.75 C 175.964844 175.75 177.046875 175.105469 177.046875 174.292969 C 177.046875 173.472656 175.964844 172.824219 174.578125 172.824219 Z M 165.859375 190.972656 L 166.285156 190.9375 C 167.023438 190.574219 168.144531 188.5625 168.984375 186.054688 C 169.878906 183.382812 170.367188 180.519531 169.5 180.210938 L 169.085938 180.257812 C 168.332031 180.628906 167.214844 182.632812 166.382812 185.136719 C 165.472656 187.808594 165.015625 190.675781 165.859375 190.972656 Z M 168.144531 204.78125 C 168.867188 203.808594 169.015625 202.714844 168.476562 202.304688 L 167.847656 202.171875 C 167.324219 202.238281 166.699219 202.679688 166.230469 203.328125 C 165.503906 204.300781 165.359375 205.394531 165.894531 205.796875 L 166.527344 205.945312 C 167.046875 205.863281 167.679688 205.429688 168.144531 204.78125 Z M 167.308594 219.90625 L 167.246094 219.867188 L 166.976562 219.839844 C 165.996094 220.070312 166.683594 224.339844 167.191406 226.585938 C 167.910156 229.71875 168.882812 232.253906 169.554688 232.671875 L 169.613281 232.714844 L 169.878906 232.742188 C 170.875 232.515625 170.171875 228.222656 169.667969 226 C 168.953125 222.84375 167.992188 220.328125 167.308594 219.90625 Z M 157.429688 225.636719 C 156.636719 225.636719 156 226.222656 156 226.957031 C 156 227.652344 156.636719 228.238281 157.429688 228.238281 C 158.214844 228.238281 158.875 227.652344 158.875 226.957031 C 158.878906 226.222656 158.21875 225.636719 157.429688 225.636719 Z M 181.699219 256.628906 C 180.789062 256.625 180.042969 257.355469 180.03125 258.265625 C 180.03125 259.148438 180.78125 259.878906 181.699219 259.878906 C 182.605469 259.894531 183.355469 259.171875 183.375 258.265625 C 183.363281 257.351562 182.613281 256.621094 181.699219 256.628906 Z M 263.742188 299.808594 C 263.792969 299.890625 263.945312 300.160156 264.171875 300.132812 L 264.269531 300.128906 L 264.445312 299.863281 L 265.949219 295.277344 L 267.125 292.222656 L 268.128906 289.898438 C 268.4375 289.117188 268.4375 288.59375 268.132812 288.292969 C 267.652344 287.851562 266.65625 288.226562 266.535156 288.269531 C 266.453125 288.335938 263.707031 292.921875 263.707031 292.921875 C 263.167969 293.742188 262.96875 294.847656 262.96875 295.984375 C 262.96875 297.601562 263.371094 299.21875 263.742188 299.808594 Z M 270.605469 322.71875 L 270.660156 322.257812 C 270.695312 321.984375 271.523438 315.605469 269.5625 313.140625 C 269.15625 312.601562 268.542969 312.257812 267.871094 312.195312 C 267.28125 312.140625 266.875 312.3125 266.652344 312.683594 C 265.457031 314.640625 270.148438 322.003906 270.355469 322.324219 Z M 281.589844 334.851562 C 281.140625 334.847656 280.703125 335.023438 280.378906 335.339844 C 280.058594 335.65625 279.875 336.085938 279.871094 336.539062 C 279.871094 337.484375 280.640625 338.21875 281.589844 338.21875 C 282.523438 338.21875 283.273438 337.464844 283.273438 336.535156 C 283.273438 335.605469 282.523438 334.851562 281.589844 334.851562 Z M 255.726562 314.308594 C 254.921875 314.308594 254.234375 314.9375 254.234375 315.710938 C 254.234375 316.507812 254.921875 317.121094 255.726562 317.121094 C 256.550781 317.121094 257.214844 316.507812 257.214844 315.710938 C 257.214844 314.9375 256.550781 314.308594 255.726562 314.308594 Z M 274.574219 339.183594 L 274.394531 339.144531 C 273.5 339.144531 270.125 342.097656 267.246094 345.046875 C 266.992188 345.316406 260.738281 351.726562 261.566406 352.5625 L 261.613281 352.613281 L 261.816406 352.65625 C 262.71875 352.65625 266.089844 349.691406 268.953125 346.757812 C 269.222656 346.488281 275.484375 340.097656 274.632812 339.230469 Z M 255.800781 356.519531 C 255.28125 356.519531 254.464844 357.007812 253.734375 357.738281 C 252.863281 358.609375 252.230469 359.816406 252.699219 360.308594 L 252.730469 360.339844 L 252.699219 360.308594 L 253.160156 360.476562 C 253.691406 360.476562 254.511719 360 255.238281 359.253906 C 256.089844 358.371094 256.742188 357.191406 256.257812 356.691406 Z M 247.566406 368.386719 C 246.925781 368.386719 246.019531 368.914062 245.230469 369.714844 C 244.402344 370.546875 243.925781 371.464844 243.925781 372.101562 C 243.925781 372.347656 243.992188 372.542969 244.144531 372.679688 L 244.730469 372.902344 C 245.359375 372.902344 246.289062 372.394531 247.066406 371.585938 C 248.214844 370.410156 248.675781 369.152344 248.15625 368.609375 Z M 204.511719 308.617188 C 203.273438 308.617188 202.269531 309.320312 202.269531 310.207031 C 202.269531 311.085938 203.277344 311.765625 204.511719 311.765625 C 205.753906 311.765625 206.75 311.085938 206.75 310.207031 C 206.75 309.320312 205.753906 308.617188 204.511719 308.617188 Z M 222.746094 309.890625 C 221.867188 309.890625 221.1875 310.363281 221.1875 310.988281 C 221.1875 311.570312 221.867188 312.050781 222.746094 312.050781 C 223.589844 312.050781 224.292969 311.566406 224.292969 310.988281 C 224.292969 310.375 223.589844 309.890625 222.746094 309.890625 Z M 245 317.339844 L 245.136719 317.132812 C 245.386719 316.082031 240.136719 314.445312 237.332031 313.734375 C 233.960938 312.875 229.957031 312.183594 229.070312 312.714844 L 229.007812 312.757812 L 228.867188 312.976562 C 228.613281 314.035156 233.859375 315.648438 236.671875 316.382812 C 240.039062 317.230469 244.042969 317.898438 244.941406 317.371094 Z M 245 317.339844 "/>
</g>
</svg>
